<svg width="226" height="52" viewBox="0 0 226 52" fill="none" xmlns="http://www.w3.org/2000/svg">
<path d="M50.7984 41L41.5967 16.7496H41.4468C41.4968 17.2618 41.5405 17.8865 41.578 18.6236C41.6155 19.3608 41.6467 20.1666 41.6717 21.0412C41.6967 21.9033 41.7092 22.7841 41.7092 23.6836V41H38.7481V13.6011H43.4708L52.1477 36.3898H52.2789L61.087 13.6011H65.7722V41H62.6238V23.4587C62.6238 22.6466 62.6362 21.8345 62.6612 21.0224C62.6862 20.1979 62.7175 19.4232 62.7549 18.6986C62.7924 17.9615 62.8299 17.3243 62.8674 16.787H62.7175L53.4033 41H50.7984ZM89.7602 20.4602V41H87.2115L86.7617 38.1139H86.5931C86.1683 38.8261 85.6186 39.4258 84.9439 39.913C84.2692 40.4003 83.5071 40.7626 82.6575 41C81.8205 41.2499 80.9271 41.3748 79.9776 41.3748C78.3534 41.3748 76.9916 41.1124 75.8922 40.5877C74.7927 40.063 73.9619 39.2509 73.3996 38.1514C72.8499 37.052 72.5751 35.6402 72.5751 33.916V20.4602H75.7235V33.6911C75.7235 35.4028 76.1108 36.6834 76.8854 37.533C77.66 38.3701 78.8407 38.7886 80.4274 38.7886C81.9516 38.7886 83.1635 38.5012 84.0631 37.9265C84.9751 37.3518 85.6311 36.5085 86.0309 35.3965C86.4307 34.2721 86.6306 32.8978 86.6306 31.2736V20.4602H89.7602ZM99.4679 41H96.3382V11.8395H99.4679V41ZM112.68 38.8261C113.192 38.8261 113.717 38.7824 114.254 38.6949C114.792 38.6074 115.229 38.5012 115.566 38.3763V40.7939C115.204 40.9563 114.698 41.0937 114.048 41.2061C113.411 41.3186 112.786 41.3748 112.174 41.3748C111.087 41.3748 110.1 41.1874 109.213 40.8126C108.326 40.4253 107.614 39.7756 107.077 38.8636C106.552 37.9515 106.29 36.6896 106.29 35.0779V22.8965H103.366V21.3785L106.308 20.1604L107.545 15.7001H109.419V20.4602H115.435V22.8965H109.419V34.9842C109.419 36.2711 109.713 37.2331 110.3 37.8703C110.9 38.5075 111.693 38.8261 112.68 38.8261ZM122.838 20.4602V41H119.727V20.4602H122.838ZM121.32 12.7765C121.832 12.7765 122.269 12.9452 122.631 13.2825C123.006 13.6074 123.194 14.1196 123.194 14.8193C123.194 15.5064 123.006 16.0187 122.631 16.356C122.269 16.6933 121.832 16.862 121.32 16.862C120.782 16.862 120.333 16.6933 119.97 16.356C119.62 16.0187 119.445 15.5064 119.445 14.8193C119.445 14.1196 119.62 13.6074 119.97 13.2825C120.333 12.9452 120.782 12.7765 121.32 12.7765ZM151.736 20.0854C153.997 20.0854 155.702 20.6789 156.852 21.8658C158.001 23.0402 158.576 24.933 158.576 27.5442V41H155.503V27.6941C155.503 26.0324 155.14 24.7893 154.416 23.9647C153.703 23.1276 152.641 22.7091 151.23 22.7091C149.243 22.7091 147.8 23.2838 146.901 24.4332C146.001 25.5827 145.551 27.2756 145.551 29.512V41H142.459V27.6941C142.459 26.5822 142.297 25.6576 141.972 24.9205C141.659 24.1834 141.185 23.6336 140.547 23.2713C139.923 22.8965 139.129 22.7091 138.167 22.7091C136.806 22.7091 135.712 22.9902 134.888 23.5524C134.063 24.1147 133.464 24.9517 133.089 26.0637C132.726 27.1631 132.545 28.5187 132.545 30.1304V41H129.434V20.4602H131.946L132.414 23.365H132.583C132.995 22.6529 133.513 22.0532 134.138 21.5659C134.763 21.0787 135.463 20.7101 136.237 20.4602C137.012 20.2103 137.836 20.0854 138.711 20.0854C140.273 20.0854 141.578 20.379 142.628 20.9662C143.69 21.5409 144.458 22.4217 144.933 23.6087H145.101C145.776 22.4217 146.701 21.5409 147.875 20.9662C149.049 20.379 150.336 20.0854 151.736 20.0854ZM168.078 41H164.967V20.4602H168.078V41ZM171.957 11.5959V11.9707C171.707 12.333 171.363 12.7703 170.926 13.2825C170.501 13.7823 170.027 14.3133 169.502 14.8755C168.977 15.4252 168.446 15.95 167.909 16.4497C167.384 16.9495 166.897 17.3805 166.447 17.7428H164.367V17.293C164.767 16.8183 165.204 16.2498 165.679 15.5876C166.153 14.913 166.616 14.2258 167.066 13.5262C167.515 12.814 167.89 12.1706 168.19 11.5959H171.957ZM181.983 41.3748C179.384 41.3748 177.323 40.4878 175.799 38.7136C174.287 36.9395 173.531 34.3033 173.531 30.8051C173.531 27.2693 174.306 24.6019 175.855 22.8028C177.404 20.9912 179.466 20.0854 182.039 20.0854C183.126 20.0854 184.076 20.2291 184.888 20.5164C185.7 20.8038 186.4 21.1911 186.987 21.6784C187.574 22.1531 188.068 22.6966 188.467 23.3088H188.692C188.642 22.9215 188.592 22.3905 188.542 21.7158C188.492 21.0412 188.467 20.4915 188.467 20.0667V11.8395H191.578V41H189.067L188.599 38.0765H188.467C188.08 38.6887 187.587 39.2446 186.987 39.7444C186.4 40.2441 185.694 40.6439 184.869 40.9438C184.057 41.2311 183.095 41.3748 181.983 41.3748ZM182.47 38.7886C184.669 38.7886 186.225 38.1639 187.137 36.9145C188.049 35.6652 188.505 33.8098 188.505 31.3486V30.7863C188.505 28.1751 188.068 26.1699 187.193 24.7706C186.331 23.3713 184.757 22.6716 182.47 22.6716C180.559 22.6716 179.128 23.4088 178.179 24.883C177.229 26.3448 176.754 28.3438 176.754 30.88C176.754 33.4038 177.223 35.3528 178.16 36.7271C179.11 38.1014 180.546 38.7886 182.47 38.7886ZM201.286 20.4602V41H198.175V20.4602H201.286ZM199.768 12.7765C200.28 12.7765 200.718 12.9452 201.08 13.2825C201.455 13.6074 201.642 14.1196 201.642 14.8193C201.642 15.5064 201.455 16.0187 201.08 16.356C200.718 16.6933 200.28 16.862 199.768 16.862C199.231 16.862 198.781 16.6933 198.419 16.356C198.069 16.0187 197.894 15.5064 197.894 14.8193C197.894 14.1196 198.069 13.6074 198.419 13.2825C198.781 12.9452 199.231 12.7765 199.768 12.7765ZM215.566 20.1229C218.015 20.1229 219.833 20.6726 221.02 21.7721C222.207 22.8715 222.8 24.6269 222.8 27.0382V41H220.533L219.933 37.964H219.783C219.208 38.7136 218.609 39.3446 217.984 39.8568C217.359 40.3566 216.635 40.7376 215.81 41C214.998 41.2499 213.998 41.3748 212.812 41.3748C211.562 41.3748 210.45 41.1562 209.476 40.7189C208.514 40.2816 207.752 39.6194 207.189 38.7324C206.64 37.8453 206.365 36.7209 206.365 35.3591C206.365 33.3101 207.177 31.7359 208.801 30.6364C210.425 29.537 212.899 28.9373 216.222 28.8373L219.764 28.6874V27.4318C219.764 25.6576 219.383 24.4145 218.621 23.7024C217.859 22.9902 216.785 22.6341 215.398 22.6341C214.323 22.6341 213.299 22.7903 212.324 23.1027C211.35 23.415 210.425 23.7836 209.551 24.2084L208.595 21.847C209.519 21.3723 210.581 20.9662 211.781 20.6289C212.98 20.2916 214.242 20.1229 215.566 20.1229ZM219.727 30.88L216.597 31.0112C214.036 31.1112 212.231 31.5297 211.181 32.2668C210.132 33.004 209.607 34.0472 209.607 35.3965C209.607 36.571 209.963 37.4393 210.675 38.0015C211.387 38.5637 212.331 38.8448 213.505 38.8448C215.329 38.8448 216.822 38.3388 217.984 37.3268C219.146 36.3148 219.727 34.7968 219.727 32.7728V30.88Z" fill="white"/>
<rect x="7.35168" y="21.4019" width="19.9546" height="19.9546" fill="white"/>
<rect x="1.05024" y="15.1005" width="17.8541" height="17.8541" stroke="white" stroke-width="2.10048"/>
</svg>
